<svg xmlns="http://www.w3.org/2000/svg" viewBox="0 0 10.13 4.64"><defs><style>.cls-1{fill:#5851ed;}</style></defs><g id="Layer_2" data-name="Layer 2"><g id="Layer_1-2" data-name="Layer 1"><path class="cls-1" d="M5.73,0V2.25a.49.49,0,0,1,.46-.39.46.46,0,0,1,.45.39V1h0V0Z"/><path class="cls-1" d="M5.73,3.67v1h.91v-1a1.39,1.39,0,0,1-.46.08,1.69,1.69,0,0,1-.45-.07"/><path class="cls-1" d="M1.14,2.7A.48.48,0,0,1,1,2.33a.53.53,0,0,1,.14-.39.53.53,0,0,1,.39-.15.72.72,0,0,1,.29.06A1.26,1.26,0,0,1,2.1,2v-1A2,2,0,0,0,1.78.94a1.66,1.66,0,0,0-.32,0A1.57,1.57,0,0,0,.88,1a1.35,1.35,0,0,0-.47.3,1.33,1.33,0,0,0-.31.46,1.43,1.43,0,0,0-.1.56,1.43,1.43,0,0,0,.18.72,1.53,1.53,0,0,0,.55.52,1.61,1.61,0,0,0,.33.12,1.58,1.58,0,0,0,.38.05,1.66,1.66,0,0,0,.32,0l.32-.1,0-1a2.21,2.21,0,0,1-.32.18.79.79,0,0,1-.29.06.46.46,0,0,1-.37-.14m2.63-.77a.26.26,0,0,1-.07.2.34.34,0,0,1-.15.06H3.33V1.67h.22a.26.26,0,0,1,.15.07.24.24,0,0,1,.07.19m.79.42a.71.71,0,0,0,.14-.47.81.81,0,0,0-.28-.67A1.23,1.23,0,0,0,3.6,1H2.37v2.7h1V2.78l.22.41.26.48H4.9l-.72-1.1a.52.52,0,0,0,.38-.22m3.08,0a1.47,1.47,0,0,0-.1-.56,1.25,1.25,0,0,0-.31-.45A1.35,1.35,0,0,0,6.76,1L6.64,1v1.4a.46.46,0,0,1-.12.31.46.46,0,0,1-.66,0,.46.46,0,0,1-.13-.31V1L5.62,1a1.35,1.35,0,0,0-.47.3,1.25,1.25,0,0,0-.31.45,1.47,1.47,0,0,0-.1.56,1.42,1.42,0,0,0,.1.55,1.25,1.25,0,0,0,.31.45,1.35,1.35,0,0,0,.47.3,1.52,1.52,0,0,0,1.61-.3,1.51,1.51,0,0,0,.31-.45,1.45,1.45,0,0,0,.1-.55M10.13,1H7.62v.81h1L7.36,3.67H10V2.84H9Z"/></g></g></svg>
