<svg width="36" height="32" viewBox="0 0 36 32" fill="none" xmlns="http://www.w3.org/2000/svg">
<path d="M15.4844 28.4376C15.679 27.9367 15.7717 27.4021 15.7573 26.865C15.7869 25.3764 16.1848 23.9184 16.9153 22.621C17.644 21.3258 18.6831 20.2321 19.9393 19.438C20.4044 19.1885 20.8141 18.8473 21.1435 18.4349C21.4729 18.0225 21.7153 17.5476 21.8559 17.0389C21.9965 16.5301 22.0324 15.9982 21.9615 15.4751C21.8906 14.9521 21.7143 14.4489 21.4433 13.996C21.0813 13.391 20.5603 12.895 19.9393 12.565C19.5833 12.318 19.2413 12.052 18.9153 11.767L18.0983 10.967C16.6012 9.3932 15.7617 7.30708 15.7513 5.135C15.7667 4.59777 15.6744 4.06288 15.4799 3.56188C15.2853 3.06089 14.9923 2.60395 14.6183 2.218C14.2459 1.83249 13.7997 1.52595 13.3062 1.31668C12.8128 1.10742 12.2823 0.999714 11.7463 1C11.2106 1.00076 10.6805 1.10894 10.1874 1.31815C9.69424 1.52735 9.24808 1.83334 8.87527 2.218C8.50189 2.60462 8.20937 3.06183 8.01483 3.56287C7.82029 4.06391 7.72763 4.59872 7.74227 5.136C7.751 5.83344 7.9431 6.5163 8.29927 7.116C8.65421 7.71469 9.16096 8.20902 9.76827 8.549C12.2273 10.105 13.9383 13.08 13.9383 16.006C13.9322 18.1592 13.1087 20.2298 11.6343 21.799L9.77427 23.451C9.16727 23.79 8.66027 24.284 8.30427 24.884C7.94727 25.483 7.75627 26.167 7.74727 26.865C7.73197 27.4022 7.82434 27.9371 8.01892 28.438C8.2135 28.939 8.50637 29.396 8.88027 29.782C9.2527 30.1674 9.69894 30.4739 10.1924 30.6832C10.6858 30.8924 11.2163 31.0002 11.7523 31C12.2881 30.9994 12.8184 30.8913 13.3117 30.682C13.805 30.4728 14.2513 30.1668 14.6243 29.782C14.9975 29.3955 15.2899 28.9384 15.4844 28.4376Z" fill="#6366F1"/>
<path d="M20.9163 7.36C20.4753 6.698 20.2403 5.919 20.2403 5.123C20.2409 4.05673 20.6633 3.034 21.4153 2.278C22.0691 1.62024 22.9314 1.2105 23.8543 1.11909C24.7772 1.02768 25.7031 1.26028 26.4733 1.777C27.1329 2.2199 27.6466 2.84836 27.9493 3.583C28.252 4.31848 28.331 5.12692 28.1765 5.9071C28.0219 6.68728 27.6406 7.40452 27.0803 7.969C26.5217 8.53193 25.808 8.91563 25.0304 9.07112C24.2527 9.22661 23.4464 9.14685 22.7143 8.842C21.9815 8.53685 21.3557 8.02107 20.9163 7.36Z" fill="#6366F1"/>
<path d="M22.0213 23.518C22.6803 23.076 23.4553 22.84 24.2473 22.84V22.838C24.7737 22.8386 25.2949 22.9432 25.7809 23.1457C26.2669 23.3482 26.7081 23.6446 27.0793 24.018C27.7352 24.6779 28.1432 25.544 28.2343 26.47C28.3254 27.3959 28.094 28.3249 27.5793 29.1C27.1399 29.762 26.5137 30.2785 25.7803 30.584C25.0482 30.8888 24.2418 30.9686 23.4642 30.8131C22.6865 30.6576 21.9729 30.2739 21.4143 29.711C20.8538 29.1464 20.4723 28.429 20.3178 27.6486C20.1632 26.8683 20.2423 26.0596 20.5453 25.324C20.848 24.5894 21.3616 23.9609 22.0213 23.518Z" fill="#6366F1"/>
<path d="M33.8243 13.758C34.2641 14.4198 34.4991 15.1974 34.4993 15.9931C34.4986 17.0597 34.0762 18.0827 33.3243 18.839C32.953 19.2122 32.5118 19.5086 32.0258 19.7111C31.5398 19.9136 31.0187 20.0182 30.4923 20.019C29.6994 20.019 28.9245 19.783 28.2663 19.341C27.6066 18.8981 27.093 18.2696 26.7903 17.535C26.4873 16.7994 26.4082 15.9907 26.5628 15.2104C26.7173 14.43 27.0988 13.7126 27.6593 13.148C28.2179 12.5849 28.9318 12.2011 29.7096 12.0456C30.4875 11.8901 31.294 11.9699 32.0263 12.275C32.7592 12.5804 33.385 13.0966 33.8243 13.758Z" fill="#6366F1"/>
<path d="M3.28026 12.647C3.93926 12.205 4.71326 11.969 5.50626 11.969C6.03261 11.9701 6.55357 12.075 7.03934 12.2776C7.52511 12.4803 7.96617 12.7767 8.33726 13.15C8.99287 13.8097 9.40068 14.6754 9.49178 15.601C9.58288 16.5265 9.35169 17.4552 8.83726 18.23C8.39793 18.8914 7.77217 19.4075 7.03926 19.713C6.3069 20.0164 5.50093 20.0953 4.72361 19.9399C3.94629 19.7845 3.23266 19.4017 2.67326 18.84C2.11296 18.2755 1.73165 17.5583 1.57708 16.7781C1.4225 15.9979 1.50153 15.1895 1.80426 14.454C2.10685 13.719 2.62048 13.0902 3.28026 12.647Z" fill="#6366F1"/>
</svg>
