<svg width="200" height="35" viewBox="0 0 200 35" fill="none" xmlns="http://www.w3.org/2000/svg">
<mask id="mask0_9481_12961" style="mask-type:alpha" maskUnits="userSpaceOnUse" x="0" y="0" width="35" height="35">
<circle cx="17.5" cy="17.5" r="17.5" fill="#374151"/>
</mask>
<g mask="url(#mask0_9481_12961)">
<path d="M-4.5 26C-4.5 22.6863 -1.78633 19.8804 1.35998 18.8405C3.88556 18.0057 6.6103 16.7836 9.1073 15.3861C13.7249 12.8017 16.243 14.23 15.4889 19.4677L13.7773 31.3551C13.3521 34.308 10.8219 36.5 7.83851 36.5H1.5C-1.81371 36.5 -4.5 33.8137 -4.5 30.5V26Z" fill="#6B7280"/>
<path d="M22.6959 12.1877C23.3761 9.80544 25.4505 8.08616 27.9177 7.86001L28.4523 7.811C31.9676 7.48878 35 10.256 35 13.786V29.8514C35 33.1651 32.3137 35.8514 29 35.8514L23.8926 35.8514C19.9068 35.8514 17.0289 32.0368 18.1231 28.2041L22.6959 12.1877Z" fill="#374151"/>
<path d="M-6.91565 10.5222C-6.91565 9.7814 -6.43597 9.12591 -5.72992 8.90184L26.5043 -1.32801C28.1215 -1.84125 29.7711 -0.634122 29.7711 1.06258V1.06258C29.7711 2.56468 28.4537 3.771 26.9527 3.82881C23.5315 3.96058 17.4266 4.81404 11.0694 8.68966C4.31669 12.8064 -2.72696 12.4637 -5.58913 12.0931C-6.37289 11.9917 -6.91565 11.3125 -6.91565 10.5222V10.5222Z" fill="#374151"/>
<path d="M0 8.22477C0 7.39833 0.444104 6.63564 1.16286 6.22772L19.1889 -4.00282C20.7501 -4.88886 22.6867 -3.76119 22.6867 -1.96609V-1.96609C22.6867 -0.477412 21.2789 0.740781 19.8133 1.00191C17.6223 1.39231 14.4272 2.63324 11.1218 6.23689C7.39789 10.2968 3.53092 10.4348 1.4823 10.1265C0.565512 9.98852 0 9.15188 0 8.22477V8.22477Z" fill="#374151"/>
<path opacity="0.9" d="M-6.91565 28.738C-6.91565 26.6469 -5.61043 24.6128 -3.52061 24.6859C0.0842513 24.8121 3.22773 27.1275 6.65966 27.7861C9.1824 28.2703 16.4442 29.4881 20.8146 26.9295C25.1108 24.568 28.7509 23.687 31.8466 24.1875C33.8861 24.5173 35 26.5541 35 28.6201V28.6201C35 31.1287 33.3474 33.3375 30.9408 34.0456L18.9513 37.573C17.9987 37.8533 16.9914 37.8927 16.0198 37.6879L-2.89085 33.7001C-5.23672 33.2054 -6.91565 31.1355 -6.91565 28.738V28.738Z" fill="#1E429F"/>
</g>
<path d="M48.952 22.5V12.932H45.08V11.22H54.872V12.932H51V22.5H48.952ZM55.8495 12.996V11.044H58.0895V12.996H55.8495ZM55.9775 22.5V14.676H57.9775V22.5H55.9775ZM62.7756 22.66C61.8476 22.66 61.1596 22.4093 60.7116 21.908C60.2743 21.396 60.0556 20.6493 60.0556 19.668V11.22H62.0556V19.572C62.0556 20.532 62.461 21.012 63.2716 21.012C63.389 21.012 63.5063 21.0067 63.6236 20.996C63.741 20.9853 63.853 20.964 63.9596 20.932L63.9276 22.516C63.5436 22.612 63.1596 22.66 62.7756 22.66ZM67.885 22.66C66.957 22.66 66.269 22.4093 65.821 21.908C65.3837 21.396 65.165 20.6493 65.165 19.668V11.22H67.165V19.572C67.165 20.532 67.5703 21.012 68.381 21.012C68.4983 21.012 68.6157 21.0067 68.733 20.996C68.8503 20.9853 68.9623 20.964 69.069 20.932L69.037 22.516C68.653 22.612 68.269 22.66 67.885 22.66ZM74.0523 22.66C73.1669 22.66 72.4043 22.4947 71.7643 22.164C71.1243 21.8333 70.6283 21.364 70.2763 20.756C69.9349 20.148 69.7643 19.428 69.7643 18.596C69.7643 17.7853 69.9296 17.076 70.2603 16.468C70.6016 15.86 71.0656 15.3853 71.6523 15.044C72.2496 14.692 72.9269 14.516 73.6843 14.516C74.7936 14.516 75.6683 14.868 76.3083 15.572C76.9589 16.276 77.2843 17.236 77.2843 18.452V19.044H71.6843C71.8336 20.4413 72.6336 21.14 74.0843 21.14C74.5216 21.14 74.9589 21.076 75.3963 20.948C75.8336 20.8093 76.2336 20.596 76.5963 20.308L77.1562 21.652C76.7829 21.9613 76.3136 22.2067 75.7483 22.388C75.1829 22.5693 74.6176 22.66 74.0523 22.66ZM73.7643 15.876C73.1776 15.876 72.7029 16.0573 72.3403 16.42C71.9776 16.7827 71.7589 17.2733 71.6843 17.892H75.6203C75.5776 17.2413 75.3963 16.7453 75.0763 16.404C74.7669 16.052 74.3296 15.876 73.7643 15.876ZM78.8681 22.5V14.676H80.8201V16.052C81.2041 15.124 82.0255 14.612 83.2841 14.516L83.8921 14.468L84.0201 16.164L82.8681 16.276C81.5561 16.404 80.9001 17.076 80.9001 18.292V22.5H78.8681ZM89.6383 22.5V11.22H93.8303C95.7183 11.22 97.1743 11.7053 98.1983 12.676C99.2329 13.6467 99.7503 15.0387 99.7503 16.852C99.7503 18.6547 99.2329 20.0467 98.1983 21.028C97.1743 22.0093 95.7183 22.5 93.8303 22.5H89.6383ZM91.6863 20.804H93.7023C96.3049 20.804 97.6063 19.4867 97.6063 16.852C97.6063 14.228 96.3049 12.916 93.7023 12.916H91.6863V20.804ZM105.49 22.66C104.604 22.66 103.842 22.4947 103.202 22.164C102.562 21.8333 102.066 21.364 101.714 20.756C101.372 20.148 101.202 19.428 101.202 18.596C101.202 17.7853 101.367 17.076 101.698 16.468C102.039 15.86 102.503 15.3853 103.09 15.044C103.687 14.692 104.364 14.516 105.122 14.516C106.231 14.516 107.106 14.868 107.746 15.572C108.396 16.276 108.722 17.236 108.722 18.452V19.044H103.122C103.271 20.4413 104.071 21.14 105.522 21.14C105.959 21.14 106.396 21.076 106.834 20.948C107.271 20.8093 107.671 20.596 108.034 20.308L108.594 21.652C108.22 21.9613 107.751 22.2067 107.186 22.388C106.62 22.5693 106.055 22.66 105.49 22.66ZM105.202 15.876C104.615 15.876 104.14 16.0573 103.778 16.42C103.415 16.7827 103.196 17.2733 103.122 17.892H107.058C107.015 17.2413 106.834 16.7453 106.514 16.404C106.204 16.052 105.767 15.876 105.202 15.876ZM113.17 22.66C112.508 22.66 111.89 22.58 111.314 22.42C110.738 22.26 110.258 22.0307 109.874 21.732L110.386 20.42C110.78 20.6867 111.223 20.8947 111.714 21.044C112.204 21.1827 112.695 21.252 113.186 21.252C113.698 21.252 114.076 21.1667 114.322 20.996C114.578 20.8147 114.706 20.58 114.706 20.292C114.706 19.844 114.375 19.556 113.714 19.428L112.114 19.124C110.759 18.868 110.082 18.164 110.082 17.012C110.082 16.5 110.22 16.0573 110.498 15.684C110.786 15.3107 111.18 15.0227 111.682 14.82C112.183 14.6173 112.759 14.516 113.41 14.516C113.964 14.516 114.498 14.596 115.01 14.756C115.522 14.9053 115.959 15.1347 116.322 15.444L115.778 16.756C115.468 16.5 115.095 16.2973 114.658 16.148C114.231 15.9987 113.82 15.924 113.426 15.924C112.903 15.924 112.514 16.0147 112.258 16.196C112.012 16.3773 111.89 16.6173 111.89 16.916C111.89 17.3853 112.194 17.6733 112.802 17.78L114.402 18.084C115.095 18.212 115.618 18.4467 115.97 18.788C116.332 19.1293 116.514 19.588 116.514 20.164C116.514 20.9427 116.21 21.556 115.602 22.004C114.994 22.4413 114.183 22.66 113.17 22.66ZM117.99 12.996V11.044H120.23V12.996H117.99ZM118.118 22.5V14.676H120.118V22.5H118.118ZM125.844 25.54C125.119 25.54 124.436 25.4547 123.796 25.284C123.167 25.124 122.612 24.8733 122.132 24.532L122.708 23.14C123.156 23.4387 123.636 23.6573 124.148 23.796C124.66 23.9453 125.172 24.02 125.684 24.02C127.114 24.02 127.828 23.332 127.828 21.956V20.884C127.604 21.3213 127.258 21.668 126.788 21.924C126.33 22.18 125.818 22.308 125.252 22.308C124.548 22.308 123.935 22.148 123.412 21.828C122.89 21.4973 122.484 21.0387 122.196 20.452C121.908 19.8653 121.764 19.1827 121.764 18.404C121.764 17.6253 121.908 16.948 122.196 16.372C122.484 15.7853 122.89 15.332 123.412 15.012C123.935 14.6813 124.548 14.516 125.252 14.516C125.839 14.516 126.362 14.6493 126.82 14.916C127.279 15.172 127.615 15.5187 127.828 15.956V14.676H129.78V21.716C129.78 22.9853 129.444 23.94 128.772 24.58C128.1 25.22 127.124 25.54 125.844 25.54ZM125.796 20.788C126.415 20.788 126.906 20.5747 127.268 20.148C127.631 19.7213 127.812 19.14 127.812 18.404C127.812 17.668 127.631 17.092 127.268 16.676C126.906 16.2493 126.415 16.036 125.796 16.036C125.178 16.036 124.687 16.2493 124.324 16.676C123.962 17.092 123.78 17.668 123.78 18.404C123.78 19.14 123.962 19.7213 124.324 20.148C124.687 20.5747 125.178 20.788 125.796 20.788ZM131.853 22.5V14.676H133.805V15.892C134.071 15.444 134.429 15.1027 134.877 14.868C135.335 14.6333 135.847 14.516 136.413 14.516C138.258 14.516 139.181 15.588 139.181 17.732V22.5H137.181V17.828C137.181 17.22 137.063 16.7773 136.829 16.5C136.605 16.2227 136.253 16.084 135.773 16.084C135.186 16.084 134.717 16.2707 134.365 16.644C134.023 17.0067 133.853 17.492 133.853 18.1V22.5H131.853ZM149.604 22.66C148.719 22.66 147.898 22.548 147.14 22.324C146.383 22.0893 145.743 21.7747 145.22 21.38L145.844 19.764C146.367 20.1373 146.938 20.4253 147.556 20.628C148.186 20.8307 148.868 20.932 149.604 20.932C150.447 20.932 151.06 20.7933 151.444 20.516C151.828 20.228 152.02 19.86 152.02 19.412C152.02 19.0387 151.882 18.7453 151.604 18.532C151.338 18.3187 150.874 18.1427 150.212 18.004L148.452 17.636C146.447 17.2093 145.444 16.18 145.444 14.548C145.444 13.844 145.631 13.2307 146.004 12.708C146.378 12.1853 146.895 11.78 147.556 11.492C148.218 11.204 148.98 11.06 149.844 11.06C150.612 11.06 151.332 11.1773 152.004 11.412C152.676 11.636 153.236 11.956 153.684 12.372L153.06 13.908C152.175 13.1613 151.098 12.788 149.828 12.788C149.092 12.788 148.516 12.9427 148.1 13.252C147.684 13.5613 147.476 13.9667 147.476 14.468C147.476 14.852 147.604 15.1613 147.86 15.396C148.116 15.62 148.554 15.796 149.172 15.924L150.916 16.292C151.972 16.516 152.756 16.868 153.268 17.348C153.791 17.828 154.052 18.468 154.052 19.268C154.052 19.94 153.871 20.532 153.508 21.044C153.146 21.556 152.628 21.956 151.956 22.244C151.295 22.5213 150.511 22.66 149.604 22.66ZM156.197 25.38L157.637 22.18L154.389 14.676H156.517L158.709 20.148L160.949 14.676H162.965L158.261 25.38H156.197ZM166.623 22.66C165.961 22.66 165.343 22.58 164.767 22.42C164.191 22.26 163.711 22.0307 163.327 21.732L163.839 20.42C164.233 20.6867 164.676 20.8947 165.167 21.044C165.657 21.1827 166.148 21.252 166.639 21.252C167.151 21.252 167.529 21.1667 167.775 20.996C168.031 20.8147 168.159 20.58 168.159 20.292C168.159 19.844 167.828 19.556 167.167 19.428L165.567 19.124C164.212 18.868 163.535 18.164 163.535 17.012C163.535 16.5 163.673 16.0573 163.951 15.684C164.239 15.3107 164.633 15.0227 165.135 14.82C165.636 14.6173 166.212 14.516 166.863 14.516C167.417 14.516 167.951 14.596 168.463 14.756C168.975 14.9053 169.412 15.1347 169.775 15.444L169.231 16.756C168.921 16.5 168.548 16.2973 168.111 16.148C167.684 15.9987 167.273 15.924 166.879 15.924C166.356 15.924 165.967 16.0147 165.711 16.196C165.465 16.3773 165.343 16.6173 165.343 16.916C165.343 17.3853 165.647 17.6733 166.255 17.78L167.855 18.084C168.548 18.212 169.071 18.4467 169.423 18.788C169.785 19.1293 169.967 19.588 169.967 20.164C169.967 20.9427 169.663 21.556 169.055 22.004C168.447 22.4413 167.636 22.66 166.623 22.66ZM175.077 22.66C173.008 22.66 171.973 21.636 171.973 19.588V16.18H170.469V14.676H171.973V12.34H173.973V14.676H176.341V16.18H173.973V19.476C173.973 19.988 174.085 20.372 174.309 20.628C174.533 20.884 174.896 21.012 175.397 21.012C175.546 21.012 175.701 20.996 175.861 20.964C176.021 20.9213 176.186 20.8787 176.357 20.836L176.661 22.308C176.469 22.4147 176.224 22.5 175.925 22.564C175.637 22.628 175.354 22.66 175.077 22.66ZM181.412 22.66C180.526 22.66 179.764 22.4947 179.124 22.164C178.484 21.8333 177.988 21.364 177.636 20.756C177.294 20.148 177.124 19.428 177.124 18.596C177.124 17.7853 177.289 17.076 177.62 16.468C177.961 15.86 178.425 15.3853 179.012 15.044C179.609 14.692 180.286 14.516 181.044 14.516C182.153 14.516 183.028 14.868 183.668 15.572C184.318 16.276 184.644 17.236 184.644 18.452V19.044H179.044C179.193 20.4413 179.993 21.14 181.444 21.14C181.881 21.14 182.318 21.076 182.756 20.948C183.193 20.8093 183.593 20.596 183.956 20.308L184.516 21.652C184.142 21.9613 183.673 22.2067 183.108 22.388C182.542 22.5693 181.977 22.66 181.412 22.66ZM181.124 15.876C180.537 15.876 180.062 16.0573 179.7 16.42C179.337 16.7827 179.118 17.2733 179.044 17.892H182.98C182.937 17.2413 182.756 16.7453 182.436 16.404C182.126 16.052 181.689 15.876 181.124 15.876ZM186.26 22.5V14.676H188.212V15.876C188.446 15.4493 188.772 15.1187 189.188 14.884C189.604 14.6387 190.084 14.516 190.628 14.516C191.801 14.516 192.569 15.028 192.932 16.052C193.177 15.572 193.529 15.1987 193.988 14.932C194.446 14.6547 194.969 14.516 195.556 14.516C197.316 14.516 198.196 15.588 198.196 17.732V22.5H196.196V17.812C196.196 17.2147 196.094 16.7773 195.892 16.5C195.7 16.2227 195.369 16.084 194.9 16.084C194.377 16.084 193.966 16.2707 193.668 16.644C193.369 17.0067 193.22 17.5133 193.22 18.164V22.5H191.22V17.812C191.22 17.2147 191.118 16.7773 190.916 16.5C190.724 16.2227 190.398 16.084 189.94 16.084C189.417 16.084 189.006 16.2707 188.708 16.644C188.409 17.0067 188.26 17.5133 188.26 18.164V22.5H186.26Z" fill="black"/>
</svg>
