<!--

            Copyright 2025 CROZ d.o.o, the original author or authors.

            Licensed under the Apache License, Version 2.0 (the "License");
            you may not use this file except in compliance with the License.
            You may obtain a copy of the License at

                http://www.apache.org/licenses/LICENSE-2.0

            Unless required by applicable law or agreed to in writing, software
            distributed under the License is distributed on an "AS IS" BASIS,
            WITHOUT WARRANTIES OR CONDITIONS OF ANY KIND, either express or implied.
            See the License for the specific language governing permissions and
            limitations under the License.

-->

<svg width="183" height="183" viewBox="0 0 183 183" fill="none" xmlns="http://www.w3.org/2000/svg">
<mask id="mask0_12339_25082" style="mask-type:alpha" maskUnits="userSpaceOnUse" x="0" y="0" width="183" height="183">
<circle cx="91.5" cy="91.5" r="91.5" fill="#374151"/>
</mask>
<g mask="url(#mask0_12339_25082)">
<path d="M-36.1589 105.661C-36.1589 102.347 -33.4784 99.6722 -30.168 99.5244C1.49919 98.1102 38.4459 85.8718 61.9527 70.9616C66.8828 67.8345 74.6041 72.1985 73.6541 77.9589L56.3603 182.827C55.8824 185.725 53.3771 187.851 50.4402 187.851H-30.1589C-33.4726 187.851 -36.1589 185.164 -36.1589 181.851V105.661Z" fill="#E5E7EB"/>
<path d="M123.439 47.011C124.119 44.6287 126.194 42.9094 128.661 42.6832L176.452 38.3025C179.968 37.9802 183 40.7474 183 44.2774V181.451C183 184.765 180.314 187.451 177 187.451L91.295 187.451C87.3092 187.451 84.4313 183.637 85.5256 179.804L123.439 47.011Z" fill="#6B7280"/>
<path d="M-36.1589 52.9021C-36.1589 50.2876 -34.4659 47.9741 -31.9739 47.1832L147.845 -9.88417C151.714 -11.112 155.66 -8.22421 155.66 -4.16526V13.5616C155.66 17.1551 152.531 20.0138 148.939 19.9392C134.135 19.632 96.9156 21.6349 57.877 45.4344C20.6402 68.1354 -18.2888 64.9017 -31.4774 62.9145C-34.2356 62.4989 -36.1589 60.0981 -36.1589 57.3087V52.9021Z" fill="#6B7280"/>
<path d="M6.10352e-05 39.5066C6.10352e-05 37.3471 1.16048 35.3543 3.03853 34.2884L109.658 -26.2224C113.658 -28.4925 118.619 -25.6034 118.619 -21.0043V-2.57381C118.619 1.24022 115.064 4.28407 111.252 4.41375C100.614 4.77565 79.8365 8.9678 58.151 32.6101C35.9352 56.8306 12.7452 54.355 3.81532 52.1771C1.46182 51.6031 6.10352e-05 49.4311 6.10352e-05 47.0086V39.5066Z" fill="#6B7280"/>
<path d="M-36.1589 151.914C-36.1589 149.44 -34.6409 147.178 -32.2658 146.485C-7.26443 139.194 12.6242 156.708 34.8205 160.968C48.0108 163.499 85.9796 169.867 108.831 156.489C137.775 140.579 161.024 137.522 179.826 146.209C181.816 147.129 183 149.173 183 151.365V181.451C183 184.765 180.314 187.451 177 187.451H-30.1589C-33.4726 187.451 -36.1589 184.765 -36.1589 181.451V151.914Z" fill="#1E429F"/>
</g>
</svg>
